<svg xmlns="http://www.w3.org/2000/svg" viewBox="0 0 24 24"><path d="M12 .3a12 12 0 0 0-3.79 23.39c.6.1.82-.26.82-.58L9 21.07c-3.34.72-4.04-1.6-4.04-1.6-.55-1.38-1.33-1.75-1.33-1.75-1.1-.74.08-.73.08-.73 1.2.08 1.84 1.24 1.84 1.24 1.07 1.84 2.8 1.3 3.5 1 .1-.78.42-1.3.76-1.6-2.67-.3-5.47-1.33-5.47-5.93 0-1.3.46-2.38 1.23-3.22-.13-.3-.54-1.52.1-3.18 0 0 1-.32 3.3 1.23a11.5 11.5 0 0 1 3-.4 11.5 11.5 0 0 1 3 .4c2.28-1.55 3.28-1.23 3.28-1.23.65 1.65.24 2.87.12 3.18.77.84 1.23 1.9 1.23 3.22 0 4.6-2.8 5.63-5.47 5.92.42.36.8 1.1.8 2.22l-.02 3.3c0 .32.2.7.82.57C20.57 22.1 24 17.6 24 12.3a12 12 0 0 0-12-12"/></svg>