<svg xmlns="http://www.w3.org/2000/svg" viewBox="0 0 24 24"><path d="M12 0L7.05.07C5.78.13 4.9.33 4.14.63a5.9 5.9 0 0 0-2.13 1.38C1.35 2.68.94 3.35.63 4.14c-.3.77-.5 1.64-.56 2.9L0 12l.07 4.95c.06 1.28.26 2.15.56 2.9a5.9 5.9 0 0 0 1.38 2.13c.67.67 1.34 1.08 2.13 1.38.77.3 1.64.5 2.9.56L12 24l4.95-.07c1.28-.06 2.15-.26 2.9-.56a5.9 5.9 0 0 0 2.13-1.38c.67-.67 1.08-1.34 1.38-2.13.3-.77.5-1.64.56-2.9L24 12l-.07-4.95c-.06-1.28-.26-2.15-.56-2.9a5.9 5.9 0 0 0-1.38-2.13c-.67-.67-1.34-1.08-2.13-1.38-.77-.3-1.64-.5-2.9-.56L12 0zm0 2.16l4.85.07a6.6 6.6 0 0 1 2.23.42c.56.22.96.48 1.38.9a3.7 3.7 0 0 1 .9 1.38c.16.42.36 1.06.4 2.23l.07 4.85-.07 4.85c-.06 1.17-.26 1.8-.42 2.23a3.8 3.8 0 0 1-.9 1.38c-.42.42-.82.68-1.38.9-.42.16-1.07.36-2.23.4l-4.86.07a81 81 0 0 1-4.86-.07 6.8 6.8 0 0 1-2.24-.42 3.7 3.7 0 0 1-1.38-.9c-.42-.42-.7-.82-.9-1.38a6.8 6.8 0 0 1-.42-2.23L2.12 12l.06-4.86a6.8 6.8 0 0 1 .42-2.23c.2-.57.48-.96.9-1.38s.8-.7 1.38-.9c.42-.17 1.05-.36 2.22-.42l4.9-.03zm0 3.68C8.6 5.84 5.84 8.6 5.84 12S8.6 18.16 12 18.16s6.16-2.76 6.16-6.16S15.4 5.84 12 5.84zM12 16a4 4 0 1 1 0-8 4 4 0 1 1 0 8zm7.85-10.4c0 .8-.65 1.44-1.44 1.44s-1.44-.65-1.44-1.44.65-1.44 1.44-1.44 1.44.65 1.44 1.44z"/></svg>