<svg version="1" xmlns="http://www.w3.org/2000/svg" width="682.667" height="682.667" viewBox="0 0 512.000000 512.000000"><path d="M134.6 4.2c-5.8 5.7-6.6 9-6.6 28V48h-21.8c-18.5 0-23.1.3-29.8 2-12.9 3.2-21.7 8.2-31.5 18-9.4 9.4-13.3 15.4-17.6 27.5l-2.8 8v176c0 168.1.1 176.3 1.8 182 7.1 23 25.2 41.1 48.2 48.2 5.7 1.7 13.9 1.8 181.5 1.8s175.8-.1 181.5-1.8c23-7.1 41.1-25.2 48.2-48.2 1.7-5.7 1.8-13.9 1.8-182v-176l-2.8-8c-4.3-12.1-8.2-18.1-17.6-27.5-9.8-9.8-18.6-14.8-31.5-18-6.7-1.7-11.3-2-29.8-2H384V31.2c0-19.1-1-22.6-7.6-28C372.7.2 372.1 0 364 0c-8.1 0-8.7.2-12.4 3.2-6.6 5.4-7.6 8.9-7.6 28V48H168V31.2c0-19-.9-22.3-7.4-28C157 .1 156.6 0 148 0h-9l-4.4 4.2zm-6.4 82.2c.3 14.2.4 14.5 3.3 18.8 7.3 10.5 22.7 11.8 31.2 2.6 4.3-4.6 5.3-8.9 5.3-22.8V72h176v13c0 9.5.4 14.1 1.5 16.8 6.9 16.3 30.1 16.3 37 0 1.1-2.7 1.5-7.3 1.5-16.8V72h20.3c15 0 21.8.4 26.2 1.5 16.2 4.2 29.3 18.4 32.4 35.1 1.5 7.8 1.5 334.8.1 342.5-3.4 18-17.9 32.5-35.9 35.9-7.4 1.4-334.8 1.4-342.2 0-18-3.4-32.5-17.9-35.9-35.9-1.5-7.9-1.4-336.2.1-343.3 3.5-16.2 16.4-30 31.9-34.2 4-1.1 11.3-1.5 26.2-1.5l20.6-.1.4 14.4z"/><path d="M193.4 193.5c-4 .7-8.9 1.8-11 2.5-7.6 2.4-19.3 9.2-25.3 14.6l-6.1 5.6V194h-39v174h40.8l.5-50.3c.4-54.5.6-56.7 6.3-67.9 4.4-8.7 14.3-17 23.9-20 10.2-3.2 26.2-2.5 34.9 1.6 6.2 2.9 12.8 9.3 15.5 15.2 4.8 10.2 5.1 13.5 5.1 69.1V368h42v-49.4c0-41.5.3-50.6 1.6-56.3 5.5-23.7 25.7-37.3 50.8-34.2 16.4 2.1 26.2 10.8 31.3 28.2 1.3 4.3 1.7 14 2 58.4l.5 53.3H408v-52.8c0-29.7-.4-56.4-1-61.2-4.2-34.4-22.9-54.8-55.6-60.5-19.7-3.4-40.9-.3-58.3 8.5-7.1 3.5-17.2 11.1-20.9 15.6l-2.9 3.5-5.4-6.5c-9.3-11.2-22.2-18.1-39.5-21.1-10.3-1.8-21.3-1.8-31 0z"/></svg>